<?xml version="1.0" encoding="iso-8859-1"?>
<!-- Generator: Adobe Illustrator 19.0.0, SVG Export Plug-In . SVG Version: 6.00 Build 0)  -->
<svg version="1.1" id="Layer_1" xmlns="http://www.w3.org/2000/svg" xmlns:xlink="http://www.w3.org/1999/xlink" x="0px" y="0px"
	 viewBox="0 0 512 512" style="enable-background:new 0 0 512 512;" xml:space="preserve">
<circle style="fill:#324A5E;" cx="256" cy="256" r="256"/>
<path style="fill:#2B3B4E;" d="M512,256c0-17.468-1.757-34.525-5.089-51.01L405.982,104.06l-63.853,89.398l-30.134-30.132
	l-23.071,48.916L180.741,104.06l-74.719,95.558l105.484,105.484l-17.299,17.299l-13.465-13.465l-74.719,95.558l103.234,103.234
	C224.413,510.526,240.035,512,256,512C397.384,512,512,397.384,512,256z"/>
<polygon style="fill:#F9B54C;" points="147.911,367.881 136.535,352.711 241.566,273.937 163.962,196.334 177.373,182.925 
	270.436,275.989 "/>
<polygon style="fill:#F4A200;" points="364.089,367.881 241.566,275.989 334.627,182.925 348.038,196.334 270.434,273.937 
	375.465,352.711 "/>
<path style="fill:#E6F3FF;" d="M405.982,199.616c0,2.639-16.727,4.779-37.361,4.779c-20.633,0-37.36-2.139-37.36-4.777v-19.111
	h74.719v19.109H405.982z"/>
<path style="fill:#324A5E;" d="M405.982,182.387c0,2.639-16.727,4.779-37.361,4.779c-20.633,0-37.36-2.139-37.36-4.777v-19.113
	h74.719v19.111H405.982z"/>
<path style="fill:#CFDBE6;" d="M405.982,180.505c0,2.639-16.727,4.779-37.361,4.779c-20.633,0-37.36-2.139-37.36-4.777v-19.113
	h74.719v19.111H405.982z"/>
<path style="fill:#324A5E;" d="M405.982,163.276c0,2.639-16.727,4.779-37.361,4.779c-20.633,0-37.36-2.139-37.36-4.777v-19.113
	h74.719v19.111H405.982z"/>
<path style="fill:#E6F3FF;" d="M405.982,161.394c0,2.639-16.727,4.779-37.361,4.779c-20.633,0-37.36-2.139-37.36-4.777v-19.113
	h74.719v19.111H405.982z"/>
<path style="fill:#324A5E;" d="M405.982,144.165c0,2.639-16.727,4.779-37.361,4.779c-20.633,0-37.36-2.139-37.36-4.777v-19.113
	h74.719L405.982,144.165z"/>
<path style="fill:#CFDBE6;" d="M405.982,142.283c0,2.639-16.727,4.779-37.361,4.779c-20.633,0-37.36-2.139-37.36-4.777v-19.111
	h74.719L405.982,142.283z"/>
<path style="fill:#324A5E;" d="M405.982,125.052c0,2.639-16.727,4.779-37.361,4.779c-20.633,0-37.36-2.139-37.36-4.777v-19.111
	h74.719v19.109H405.982z"/>
<path style="fill:#E6F3FF;" d="M405.982,123.171c0,2.639-16.727,4.779-37.361,4.779c-20.633,0-37.36-2.139-37.36-4.777v-19.115
	h74.719v19.113H405.982z"/>
<ellipse style="fill:#CFDBE6;" cx="368.623" cy="104.055" rx="37.36" ry="4.779"/>
<path style="fill:#E6F3FF;" d="M180.741,199.616c0,2.639-16.727,4.779-37.36,4.779s-37.36-2.139-37.36-4.777v-19.111h74.719v19.109
	H180.741z"/>
<path style="fill:#324A5E;" d="M180.741,182.387c0,2.639-16.727,4.779-37.36,4.779s-37.36-2.139-37.36-4.777v-19.113h74.719v19.111
	H180.741z"/>
<path style="fill:#CFDBE6;" d="M180.741,180.505c0,2.639-16.727,4.779-37.36,4.779s-37.36-2.139-37.36-4.777v-19.111h74.719
	L180.741,180.505z"/>
<path style="fill:#324A5E;" d="M180.741,163.276c0,2.639-16.727,4.779-37.36,4.779s-37.36-2.139-37.36-4.777v-19.111h74.719
	L180.741,163.276z"/>
<path style="fill:#E6F3FF;" d="M180.741,161.394c0,2.639-16.727,4.779-37.36,4.779s-37.36-2.139-37.36-4.777v-19.113h74.719v19.111
	H180.741z"/>
<path style="fill:#324A5E;" d="M180.741,144.165c0,2.639-16.727,4.779-37.36,4.779s-37.36-2.139-37.36-4.777v-19.111h74.719v19.109
	H180.741z"/>
<path style="fill:#CFDBE6;" d="M180.741,142.283c0,2.639-16.727,4.779-37.36,4.779s-37.36-2.139-37.36-4.777v-19.111h74.719v19.109
	H180.741z"/>
<path style="fill:#324A5E;" d="M180.741,125.052c0,2.639-16.727,4.779-37.36,4.779s-37.36-2.139-37.36-4.777v-19.111h74.719
	L180.741,125.052z"/>
<path style="fill:#E6F3FF;" d="M180.741,123.171c0,2.639-16.727,4.779-37.36,4.779s-37.36-2.139-37.36-4.777v-19.111h74.719
	L180.741,123.171z"/>
<ellipse style="fill:#CFDBE6;" cx="143.377" cy="104.055" rx="37.36" ry="4.779"/>
<path style="fill:#E6F3FF;" d="M405.982,404.494c0,2.639-16.727,4.779-37.361,4.779c-20.633,0-37.36-2.139-37.36-4.777v-19.111
	h74.719v19.109H405.982z"/>
<path style="fill:#324A5E;" d="M405.982,387.263c0,2.639-16.727,4.779-37.361,4.779c-20.633,0-37.36-2.139-37.36-4.777v-19.111
	h74.719v19.109H405.982z"/>
<path style="fill:#CFDBE6;" d="M405.982,385.381c0,2.639-16.727,4.779-37.361,4.779c-20.633,0-37.36-2.139-37.36-4.777v-19.111
	h74.719v19.109H405.982z"/>
<path style="fill:#324A5E;" d="M405.982,368.152c0,2.639-16.727,4.779-37.361,4.779c-20.633,0-37.36-2.139-37.36-4.777v-19.111
	h74.719v19.109H405.982z"/>
<path style="fill:#E6F3FF;" d="M405.982,366.27c0,2.639-16.727,4.779-37.361,4.779c-20.633,0-37.36-2.139-37.36-4.777V347.16h74.719
	v19.109H405.982z"/>
<path style="fill:#324A5E;" d="M405.982,349.041c0,2.639-16.727,4.779-37.361,4.779c-20.633,0-37.36-2.139-37.36-4.777v-19.111
	h74.719L405.982,349.041z"/>
<path style="fill:#CFDBE6;" d="M405.982,347.158c0,2.639-16.727,4.779-37.361,4.779c-20.633,0-37.36-2.139-37.36-4.777v-19.111
	h74.719L405.982,347.158z"/>
<path style="fill:#324A5E;" d="M405.982,329.93c0,2.639-16.727,4.779-37.361,4.779c-20.633,0-37.36-2.139-37.36-4.777V310.82h74.719
	v19.109H405.982z"/>
<path style="fill:#E6F3FF;" d="M405.982,328.047c0,2.639-16.727,4.779-37.361,4.779c-20.633,0-37.36-2.139-37.36-4.777v-19.111
	h74.719v19.109H405.982z"/>
<ellipse style="fill:#CFDBE6;" cx="368.623" cy="308.941" rx="37.36" ry="4.779"/>
<path style="fill:#E6F3FF;" d="M180.741,404.494c0,2.639-16.727,4.779-37.36,4.779s-37.36-2.139-37.36-4.777v-19.111h74.719v19.109
	H180.741z"/>
<path style="fill:#324A5E;" d="M180.741,387.263c0,2.639-16.727,4.779-37.36,4.779s-37.36-2.139-37.36-4.777v-19.111h74.719v19.109
	H180.741z"/>
<path style="fill:#CFDBE6;" d="M180.741,385.381c0,2.639-16.727,4.779-37.36,4.779s-37.36-2.139-37.36-4.777v-19.111h74.719
	L180.741,385.381z"/>
<path style="fill:#324A5E;" d="M180.741,368.152c0,2.639-16.727,4.779-37.36,4.779s-37.36-2.139-37.36-4.777v-19.111h74.719
	L180.741,368.152z"/>
<path style="fill:#E6F3FF;" d="M180.741,366.27c0,2.639-16.727,4.779-37.36,4.779s-37.36-2.139-37.36-4.777V347.16h74.719v19.109
	H180.741z"/>
<path style="fill:#324A5E;" d="M180.741,349.041c0,2.639-16.727,4.779-37.36,4.779s-37.36-2.139-37.36-4.777v-19.111h74.719v19.109
	H180.741z"/>
<path style="fill:#CFDBE6;" d="M180.741,347.158c0,2.639-16.727,4.779-37.36,4.779s-37.36-2.139-37.36-4.777v-19.111h74.719v19.109
	H180.741z"/>
<path style="fill:#324A5E;" d="M180.741,329.93c0,2.639-16.727,4.779-37.36,4.779s-37.36-2.139-37.36-4.777V310.82h74.719
	L180.741,329.93z"/>
<path style="fill:#E6F3FF;" d="M180.741,328.047c0,2.639-16.727,4.779-37.36,4.779s-37.36-2.139-37.36-4.777v-19.111h74.719
	L180.741,328.047z"/>
<ellipse style="fill:#CFDBE6;" cx="143.377" cy="308.941" rx="37.36" ry="4.779"/>
<path style="fill:#FFFFFF;" d="M311.994,306.264c0,3.949-25.031,7.151-55.91,7.151s-55.91-3.201-55.91-7.151v-28.601h111.819
	L311.994,306.264L311.994,306.264z"/>
<path style="fill:#E6F3FF;" d="M256.243,277.663v35.75c30.804-0.01,55.751-3.208,55.751-7.149v-28.601H256.243z"/>
<path style="fill:#324A5E;" d="M311.994,280.479c0,3.949-25.031,7.151-55.91,7.151s-55.91-3.201-55.91-7.151v-28.601h111.819
	L311.994,280.479L311.994,280.479z"/>
<path style="fill:#2B3B4E;" d="M256.243,251.878v35.75c30.804-0.01,55.751-3.208,55.751-7.149v-28.601H256.243z"/>
<path style="fill:#E6F3FF;" d="M311.994,277.663c0,3.949-25.031,7.151-55.91,7.151s-55.91-3.201-55.91-7.151v-28.601h111.819
	L311.994,277.663L311.994,277.663z"/>
<path style="fill:#CFDBE6;" d="M256.243,249.061v35.75c30.804-0.01,55.751-3.208,55.751-7.149v-28.601H256.243z"/>
<path style="fill:#324A5E;" d="M311.994,251.878c0,3.949-25.031,7.151-55.91,7.151s-55.91-3.201-55.91-7.151v-28.601h111.819
	L311.994,251.878L311.994,251.878z"/>
<path style="fill:#2B3B4E;" d="M256.243,223.279v35.75c30.804-0.01,55.751-3.208,55.751-7.149v-28.601H256.243z"/>
<path style="fill:#FFFFFF;" d="M311.994,249.061c0,3.949-25.031,7.151-55.91,7.151s-55.91-3.201-55.91-7.151V220.46h111.819
	L311.994,249.061L311.994,249.061z"/>
<path style="fill:#E6F3FF;" d="M256.243,220.462v35.75c30.804-0.01,55.751-3.208,55.751-7.149v-28.601L256.243,220.462
	L256.243,220.462z"/>
<path style="fill:#324A5E;" d="M311.994,223.279c0,3.949-25.031,7.151-55.91,7.151s-55.91-3.201-55.91-7.151v-28.601h111.819
	L311.994,223.279L311.994,223.279z"/>
<path style="fill:#2B3B4E;" d="M256.243,194.677v35.75c30.804-0.01,55.751-3.208,55.751-7.149v-28.601L256.243,194.677
	L256.243,194.677z"/>
<path style="fill:#E6F3FF;" d="M311.994,220.462c0,3.949-25.031,7.151-55.91,7.151s-55.91-3.201-55.91-7.151V191.86h111.819
	L311.994,220.462L311.994,220.462z"/>
<path style="fill:#CFDBE6;" d="M256.243,191.86v35.75c30.804-0.01,55.751-3.208,55.751-7.149V191.86L256.243,191.86L256.243,191.86z
	"/>
<path style="fill:#324A5E;" d="M311.994,194.677c0,3.949-25.031,7.151-55.91,7.151s-55.91-3.201-55.91-7.151v-28.601h111.819
	L311.994,194.677L311.994,194.677z"/>
<path style="fill:#2B3B4E;" d="M256.243,166.076v35.75c30.804-0.01,55.751-3.208,55.751-7.149v-28.601H256.243z"/>
<path style="fill:#FFFFFF;" d="M311.994,191.86c0,3.949-25.031,7.151-55.91,7.151s-55.91-3.201-55.91-7.151v-28.601h111.819
	L311.994,191.86L311.994,191.86z"/>
<g>
	<path style="fill:#E6F3FF;" d="M256.243,163.259v35.75c30.804-0.01,55.751-3.208,55.751-7.149v-28.601H256.243z"/>
	<ellipse style="fill:#E6F3FF;" cx="256.086" cy="163.254" rx="55.91" ry="7.151"/>
</g>
<path style="fill:#CFDBE6;" d="M311.994,163.259c0-3.943-24.947-7.139-55.751-7.149v14.3
	C287.048,170.398,311.994,167.202,311.994,163.259z"/>
<g>
</g>
<g>
</g>
<g>
</g>
<g>
</g>
<g>
</g>
<g>
</g>
<g>
</g>
<g>
</g>
<g>
</g>
<g>
</g>
<g>
</g>
<g>
</g>
<g>
</g>
<g>
</g>
<g>
</g>
</svg>
